<svg width="220" height="54" xmlns="http://www.w3.org/2000/svg">
  <defs>
    <clipPath clipPathUnits="userSpaceOnUse" id="clipPath3321">
      <path d="m89.524,460.36l0,-144.899l135.991,0l0,144.899" id="path3323"/>
    </clipPath>
    <clipPath clipPathUnits="userSpaceOnUse" id="clipPath3309">
      <path d="m89.524,460.36l0,-144.899l135.991,0l0,144.899" id="path3311"/>
    </clipPath>
    <clipPath clipPathUnits="userSpaceOnUse" id="clipPath3297">
      <path d="m89.524,460.36l0,-144.899l135.991,0l0,144.899" id="path3299"/>
    </clipPath>
    <clipPath clipPathUnits="userSpaceOnUse" id="clipPath3221">
      <path d="m89.524,460.36l0,-144.899l135.991,0l0,144.899" id="path3223"/>
    </clipPath>
    <clipPath clipPathUnits="userSpaceOnUse" id="clipPath3177">
      <path d="m89.524,460.36l0,-144.899l135.991,0l0,144.899" id="path3179"/>
    </clipPath>
    <clipPath clipPathUnits="userSpaceOnUse" id="clipPath3161">
      <path d="m63.726,274.174l190.964,0l0,214.961l-190.964,0l0,-214.961z" id="path3163"/>
    </clipPath>
    <clipPath clipPathUnits="userSpaceOnUse" id="clipPath3089">
      <path d="m-314.443,-2021.942l1286.64,0l0,-765.36l-1286.64,0l0,765.36z" id="path3091"/>
    </clipPath>
    <clipPath clipPathUnits="userSpaceOnUse" id="clipPath3081">
      <path d="m200.62,684l401.209,0l0,122.929l-401.209,0l0,-122.929z" clip-rule="evenodd" id="path3083"/>
    </clipPath>
    <clipPath clipPathUnits="userSpaceOnUse" id="clipPath3003">
      <path d="m280.895365,-112.662458l0,34.719l148.493,0l0,-34.719" id="path3005"/>
    </clipPath>
    <clipPath clipPathUnits="userSpaceOnUse" id="clipPath2955">
      <path d="m462.588298,449.670521l96.75,0l0,34.494l-96.75,0l0,-34.494z" clip-rule="evenodd" id="path2957"/>
    </clipPath>
    <clipPath clipPathUnits="userSpaceOnUse" id="clipPath2915">
      <path d="m-8.545,791.512l0,-105.374l105.468,0l0,105.374" id="path2917"/>
    </clipPath>
    <clipPath clipPathUnits="userSpaceOnUse" id="clipPath2873">
      <path d="m-8.545,791.512l0,-105.374l105.468,0l0,105.374" id="path2875"/>
    </clipPath>
    <clipPath clipPathUnits="userSpaceOnUse" id="clipPath2863">
      <path d="m-8.447,684l602.447,0l0,122.929l-602.447,0l0,-122.929z" clip-rule="evenodd" id="path2865"/>
    </clipPath>
    <clipPath clipPathUnits="userSpaceOnUse" id="clipPath2853">
      <path d="m0,0l594,0l0,792l-594,0l0,-792z" id="path2855"/>
    </clipPath>
  </defs>
  <metadata id="metadata7">image/svg+xml</metadata>
  <g>
    <title>background</title>
    <rect fill="none" id="canvas_background" height="402" width="582" y="-1" x="-1"/>
  </g>
  <g>
    <title>Layer 1</title>
    <g id="layer1">
      <g transform="matrix(1.95746,0,0,1.95746,-2186.7203,-1498.4277) " id="g5572">
        <g id="g2951" transform="matrix(1.25,0,0,-1.25,534.46429,1364.0586) ">
          <g id="g2953" clip-path="url(#clipPath2955)">
            <g id="g2959" transform="matrix(0.5999908,0,0,-0.6171417,298,409) ">
              <path fill="#ffffff" fill-rule="nonzero" d="m345.939365,-100.899458l6.215,0l0,19.254l-6.215,0l0,-19.254z" id="path2961"/>
            </g>
            <g id="g2963" transform="matrix(0.5999908,0,0,-0.6171417,298,409) ">
              <path fill="#ffffff" fill-rule="nonzero" d="m354.252365,-100.899458l6.216,0l0,2.57l0.078,0c1.307,-1.957 3.26,-3.031 5.487,-3.031c1.88,0 3.754,1.186 3.872,3.031l0.075,0c1.308,-1.957 3.261,-3.031 5.486,-3.031c2.49,0 4.33,1.345 4.33,4.102l0,15.613l-6.211,0l0,-13.616c0,-1.032 -0.344,-1.724 -1.494,-1.724c-0.656,0 -1.19,0.266 -1.609,0.804l-0.352,0.458l0,14.078l-6.209,0l0,-13.616c0,-1.032 -0.344,-1.724 -1.494,-1.724c-0.654,0 -1.19,0.266 -1.613,0.804l-0.346,0.458l0,14.078l-6.216,0l0,-19.254" id="path2965"/>
            </g>
            <g id="g2967" transform="matrix(0.5999908,0,0,-0.6171417,298,409) ">
              <path fill="#ffffff" fill-rule="nonzero" d="m388.102365,-87.819458c-0.111,1.608 0.844,2.494 2.033,2.494c1.721,0 1.956,-1.731 1.956,-5.294l0,-1.458c0,-3.836 0,-5.834 -1.916,-5.834c-0.77,0 -1.344,0.462 -1.727,0.772l-0.346,0.34l0,8.98zm-6.214,-21.135l6.214,0l0,9.167l0.08,0c0.879,-0.923 2.491,-1.573 3.753,-1.573c4.299,0 6.599,4.295 6.599,9.855c0,4.411 -1.839,10.089 -7.054,10.089c-2.419,0 -3.992,-1.149 -5.218,-2.991l-1.154,2.762l-3.22,0l0,-27.309" id="path2969"/>
            </g>
            <g id="g2971" transform="matrix(0.5999908,0,0,-0.6171417,298,409) ">
              <path fill="#ffffff" fill-rule="nonzero" d="m400.153365,-108.954458l6.213,0l0,27.309l-6.213,0l0,-27.309z" id="path2973"/>
            </g>
            <g id="g2975" transform="matrix(0.5999908,0,0,-0.6171417,298,409) ">
              <path fill="#ffffff" fill-rule="nonzero" d="m418.837365,-94.151458c-0.037,-1.803 -0.19,-3.875 -2.342,-3.875c-1.762,0 -2.295,2.072 -2.295,3.875l4.637,0zm-4.637,3.682c0,1.691 0.34,4.562 2.797,4.562c1.498,0 2.759,-1.071 3.145,-2.646l4.178,1.529c-0.266,0.891 -2.182,5.262 -7.708,5.262c-5.946,0 -8.629,-4.796 -8.629,-10.123c0,-5.451 2.838,-10.053 8.553,-10.053c5.982,0 8.055,5.14 8.055,10.161l0,1.308l-10.391,0" id="path2977"/>
            </g>
            <g id="g2979" transform="matrix(0.5999908,0,0,-0.6171417,298,409) ">
              <path fill="#ffffff" fill-rule="nonzero" d="m345.921365,-109.075458l6.232,0l0,5.541l-6.232,0l0,-5.541z" id="path2981"/>
            </g>
            <g id="g2983" transform="matrix(0.5999908,0,0,-0.6171417,298,409) ">
              <path fill="#ffffff" fill-rule="nonzero" d="m427.313365,-83.899458c0.319,0 0.756,0.057 0.756,-0.34c0,-0.285 -0.25,-0.324 -0.535,-0.324l-0.587,0l0,0.664l0.366,0zm1.067,1.292l-0.387,0l-0.65,-1.019l-0.396,0l0,1.019l-0.335,0l0,-2.208l0.991,0c0.187,0 0.378,0.011 0.552,0.106c0.166,0.095 0.25,0.291 0.25,0.474c0,0.438 -0.309,0.6 -0.715,0.609l0.69,1.019zm-2.658,-1.112c0,0.899 0.728,1.597 1.646,1.597c0.902,0 1.637,-0.698 1.637,-1.597c0,-0.872 -0.735,-1.576 -1.637,-1.576c-0.918,0 -1.646,0.704 -1.646,1.576m-0.386,0c0,-1.079 0.91,-1.963 2.032,-1.963c1.117,0 2.02,0.884 2.02,1.963c0,1.099 -0.903,1.984 -2.02,1.984c-1.122,0 -2.032,-0.885 -2.032,-1.984" id="path2985"/>
            </g>
            <g id="g2987" transform="matrix(0.5999908,0,0,-0.6171417,298,409) ">
              <path fill="#ffffff" fill-rule="nonzero" d="m315.757365,-109.160458l19.258,0l0,5.293l-6.175,0l0,22.016l-6.91,0l0,-22.016l-6.173,0l0,-5.293z" id="path2989"/>
            </g>
            <g id="g2991" transform="matrix(0.5999908,0,0,-0.6171417,298,409) ">
              <path fill="#ffffff" fill-rule="nonzero" d="m332.198365,-101.105458l6.098,0l0,2.914l0.078,0c0.766,-2.418 3.526,-3.375 5.983,-3.375l0,6.29c-0.846,-0.306 -1.649,-0.537 -2.532,-0.537c-2.068,0 -2.724,0.537 -3.414,1.495l0,12.467l-6.213,0l0,-19.254" id="path2993"/>
            </g>
            <g id="g2995" transform="matrix(0.5999908,0,0,-0.6171417,298,409) ">
              <path fill="#ffffff" fill-rule="nonzero" d="m303.260365,-88.597458c-0.078,0.414 -0.203,0.799 -0.382,1.143c-0.059,0.118 -0.087,0.244 -0.092,0.368c-0.262,0.258 -0.449,0.418 -0.504,0.461c-1.437,1.203 -2.561,1.831 -4.305,2.395c-0.642,0.209 -1.991,0.555 -3.725,0.515l-2.663,1.44c3.234,0.709 5.883,0.057 6.93,-0.284c1.955,-0.633 3.282,-1.37 4.889,-2.714c0.325,-0.273 2.016,-1.748 3.186,-4.064c0.213,-0.422 0.424,-0.889 0.616,-1.397l-3.95,2.137" id="path2997"/>
            </g>
            <g id="g2999" transform="matrix(0.5999908,0,0,-0.6171417,298,409) ">
              <g id="g3001" clip-path="url(#clipPath3003)">
                <path fill="#ffffff" fill-rule="nonzero" d="m293.928365,-107.385458c0.092,-0.005 0.192,-0.007 0.289,-0.009c0.177,-0.006 0.354,-0.004 0.529,0.002c-0.314,0.072 -0.615,0.172 -0.902,0.285l2.378,1.287c1.861,-0.058 3.74,0.772 5.001,2.108c-0.287,0.025 -0.592,0.066 -0.895,0.116l4.024,2.182c-0.008,-0.045 -0.013,-0.091 -0.022,-0.135c0.165,0.102 0.309,0.219 0.426,0.352l2.68,1.45c-0.034,-0.101 -0.06,-0.2 -0.097,-0.303c-0.02,-0.059 -0.047,-0.117 -0.079,-0.166c-0.027,-0.086 -0.052,-0.171 -0.082,-0.258c-0.771,-2.199 -2.25,-4.129 -4.123,-5.61c-0.052,-0.07 -0.107,-0.136 -0.179,-0.19c-2.881,-2.232 -5.778,-2.738 -7.246,-2.841c-0.08,-0.006 -0.153,-0.008 -0.231,-0.012c-0.883,-0.068 -1.772,-0.048 -2.654,0.074c-0.052,0.006 -0.104,0.018 -0.158,0.025c-0.375,0.053 -0.706,0.114 -0.971,0.177c-0.239,0.054 -0.463,0.109 -0.676,0.17l2.477,1.341c0.17,-0.017 0.339,-0.037 0.511,-0.045" id="path3007"/>
                <path fill="#ffffff" fill-rule="nonzero" d="m283.505365,-91.138458c-0.386,-0.95 -0.662,-2.127 -0.711,-2.585c-0.129,-1.093 -0.129,-1.093 -0.141,-2.173c-0.004,-0.336 0.035,-0.828 0.094,-1.196c0.139,-0.844 0.299,-1.788 0.843,-3.066l0,-3.525c-0.425,0.565 -0.83,1.199 -1.187,1.905c-0.99,1.966 -1.221,3.372 -1.391,4.402c-0.075,0.473 -0.121,1.062 -0.117,1.501c0.012,1.16 0.013,1.182 0.15,2.358c0.084,0.707 0.473,2.291 0.993,3.419c0.406,0.881 0.777,1.561 1.231,2.221c0.04,0.072 0.084,0.135 0.138,0.193c0.058,0.081 0.121,0.163 0.183,0.244l0,-3.909c-0.029,0.07 -0.059,0.14 -0.085,0.211" id="path3009"/>
              </g>
            </g>
            <g id="g3011" transform="matrix(0.5999908,0,0,-0.6171417,298,409) ">
              <path fill="#ffffff" fill-rule="nonzero" d="m303.712365,-97.521458c-0.174,0.279 -0.373,0.529 -0.588,0.77c0.662,1.217 1.172,2.445 1.513,3.63c0.133,-0.179 0.27,-0.361 0.387,-0.556c1.07,-1.756 1.258,-3.905 0.541,-6.067c-0.049,-0.064 -0.091,-0.137 -0.121,-0.219c-0.064,-0.184 -0.145,-0.36 -0.218,-0.537c-0.082,-0.08 -0.149,-0.172 -0.196,-0.279c-0.07,-0.155 -0.162,-0.292 -0.274,-0.418l-0.404,-0.217c0.274,1.381 0.062,2.739 -0.64,3.893" id="path3013"/>
            </g>
            <g id="g3015" transform="matrix(0.5999908,0,0,-0.6171417,298,409) ">
              <path fill="#ffffff" fill-rule="nonzero" d="m293.046365,-107.304458c-0.042,0.004 -0.082,0.004 -0.123,0.004c-0.588,0.085 -1.15,0.218 -1.676,0.4c0.452,0.106 0.918,0.252 1.389,0.428c0.369,-0.256 0.778,-0.465 1.208,-0.635l-0.427,-0.233c-0.123,0.014 -0.25,0.017 -0.371,0.036" id="path3017"/>
            </g>
            <g id="g3019" transform="matrix(0.5999908,0,0,-0.6171417,298,409) ">
              <path fill="#ffffff" fill-rule="nonzero" d="m307.210365,-90.734458l8.431,-4.566l-8.205,-4.447c1.153,3.605 0.643,6.722 -0.226,9.013" id="path3021"/>
            </g>
            <g id="g3023" transform="matrix(0.5999908,0,0,-0.6171417,298,409) ">
              <path fill="#ffffff" fill-rule="nonzero" d="m295.612365,-105.771458l0,0c-0.342,0.049 -0.668,0.129 -0.971,0.23c1.145,0.644 2.307,1.477 3.434,2.482c0.79,-0.245 1.541,-0.42 2.253,-0.537l-4.106,-2.224c-0.203,0.006 -0.408,0.02 -0.61,0.049" id="path3025"/>
            </g>
            <g id="g3027" transform="matrix(0.5999908,0,0,-0.6171417,298,409) ">
              <path fill="#ffffff" fill-rule="nonzero" d="m299.595365,-88.472458c-4.679,0.653 -9.643,-1.543 -12.534,-5.179c-1.084,1.314 -1.841,2.623 -2.113,3.789c-0.106,0.458 -0.127,0.862 -0.074,1.214c0.191,0.26 0.396,0.526 0.638,0.813c0.668,0.798 2.558,2.751 5.677,3.652c1.099,0.32 2.138,0.445 3.063,0.468l9.008,-4.882c0.073,-0.358 0.112,-0.737 0.116,-1.134c-1.11,0.634 -2.385,1.061 -3.781,1.259" id="path3029"/>
            </g>
            <g id="g3031" transform="matrix(0.5999908,0,0,-0.6171417,298,409) ">
              <path fill="#ffffff" fill-rule="nonzero" d="m287.300365,-96.523458c1.069,-1.045 2.292,-2.053 3.62,-2.969c-0.087,-0.19 -0.168,-0.387 -0.239,-0.586c-0.001,0 -0.001,0 -0.001,-0.002c-0.586,-1.682 -0.439,-3.375 0.412,-4.775c0.054,-0.084 0.112,-0.16 0.168,-0.24c-0.975,-0.284 -1.883,-0.377 -2.673,-0.263c-0.493,0.443 -0.926,0.94 -1.271,1.507c-0.646,1.059 -0.972,2.261 -0.972,3.523c0,0.88 0.159,1.785 0.476,2.694c0.134,0.38 0.3,0.75 0.48,1.111" id="path3033"/>
            </g>
            <g id="g3035" transform="matrix(0.5999908,0,0,-0.6171417,298,409) ">
              <path fill="#ffffff" fill-rule="nonzero" d="m292.340365,-100.659458c0.024,0.066 0.054,0.131 0.08,0.195c1.202,-0.724 2.466,-1.371 3.756,-1.905c-1.075,-0.869 -2.164,-1.557 -3.214,-2.061c-0.135,0.151 -0.262,0.315 -0.369,0.49c-0.575,0.943 -0.665,2.108 -0.253,3.28l0,0.001" id="path3037"/>
            </g>
            <g id="g3039" transform="matrix(0.5999908,0,0,-0.6171417,298,409) ">
              <path fill="#ffffff" fill-rule="nonzero" d="m299.194365,-96.607458c0.604,-0.084 1.153,-0.268 1.635,-0.534c-0.875,-1.376 -1.949,-2.714 -3.183,-3.917c-0.208,0.076 -0.419,0.156 -0.634,0.243c-1.251,0.507 -2.494,1.145 -3.683,1.871c1.382,1.653 3.683,2.643 5.865,2.337" id="path3041"/>
            </g>
            <g id="g3043" transform="matrix(0.5999908,0,0,-0.6171417,298,409) ">
              <path fill="#ffffff" fill-rule="nonzero" d="m287.530365,-107.244458c0.932,-0.516 1.824,-1.007 3.41,-1.437l-7.35,-3.981l0,8.979c1.692,-2.262 3.665,-3.409 3.94,-3.561" id="path3045"/>
            </g>
            <g id="g3047" transform="matrix(0.5999908,0,0,-0.6171417,298,409) ">
              <path fill="#ffffff" fill-rule="nonzero" d="m302.207365,-98.436458c0.579,-0.944 0.669,-2.111 0.257,-3.282c0,-0.001 0,-0.001 0,-0.001c-0.04,-0.103 -0.081,-0.199 -0.124,-0.297c-0.807,-0.017 -1.754,0.107 -2.798,0.369c0.994,1.042 1.867,2.151 2.613,3.284c0.016,-0.025 0.037,-0.048 0.052,-0.073" id="path3049"/>
            </g>
            <g id="g3051" transform="matrix(0.5999908,0,0,-0.6171417,298,409) ">
              <path fill="#ffffff" fill-rule="nonzero" d="m299.353365,-90.215458c1.466,-0.202 2.758,-0.715 3.812,-1.475c-0.263,-1.249 -0.759,-2.585 -1.457,-3.931c-0.672,0.377 -1.434,0.638 -2.274,0.756c-2.826,0.395 -5.818,-0.93 -7.572,-3.119c-1.333,0.931 -2.56,1.959 -3.605,3.015c2.474,3.309 6.91,5.339 11.096,4.754" id="path3053"/>
            </g>
            <g id="g3055" transform="matrix(0.5999908,0,0,-0.6171417,298,409) ">
              <path fill="#ffffff" fill-rule="nonzero" d="m286.030365,-95.172458c-0.346,-0.599 -0.639,-1.229 -0.867,-1.882c-0.643,-1.831 -0.744,-3.669 -0.325,-5.364c-0.306,0.432 -0.602,0.909 -0.866,1.432c-0.149,0.293 -0.27,0.566 -0.382,0.828l0,8.809c0.495,-1.242 1.338,-2.545 2.44,-3.823" id="path3057"/>
            </g>
            <g id="g3059" transform="matrix(0.5999908,0,0,-0.6171417,298,409) ">
              <path fill="#ffffff" fill-rule="nonzero" d="m305.640365,-91.566458c-0.176,0.206 -0.372,0.4 -0.569,0.586c0.023,0.221 0.039,0.437 0.053,0.65c0.181,-0.375 0.358,-0.787 0.516,-1.236" id="path3061"/>
            </g>
            <g id="g3063" transform="matrix(0.5999908,0,0,-0.6171417,298,409) ">
              <path fill="#ffffff" fill-rule="nonzero" d="m284.167365,-86.707458c-0.213,-0.255 -0.399,-0.492 -0.577,-0.733l0,9.497l7.999,-4.332c-0.293,-0.063 -0.588,-0.135 -0.889,-0.22c-3.584,-1.035 -5.764,-3.294 -6.533,-4.212" id="path3065"/>
            </g>
            <g id="g3067" transform="matrix(0.5999908,0,0,-0.6171417,298,409) ">
              <path fill="#ffffff" fill-rule="nonzero" d="m310.114365,-84.105458c0.318,0 0.756,0.057 0.756,-0.34c0,-0.285 -0.25,-0.324 -0.535,-0.324l-0.587,0l0,0.664l0.366,0zm1.066,1.292l-0.386,0l-0.651,-1.019l-0.395,0l0,1.019l-0.335,0l0,-2.208l0.99,0c0.187,0 0.379,0.011 0.553,0.106c0.166,0.095 0.25,0.291 0.25,0.474c0,0.438 -0.31,0.6 -0.715,0.609l0.689,1.019zm-2.658,-1.112c0,0.899 0.729,1.597 1.647,1.597c0.902,0 1.636,-0.698 1.636,-1.597c0,-0.873 -0.734,-1.576 -1.636,-1.576c-0.918,0 -1.647,0.703 -1.647,1.576m-0.386,0c0,-1.079 0.911,-1.963 2.033,-1.963c1.117,0 2.019,0.884 2.019,1.963c0,1.099 -0.902,1.984 -2.019,1.984c-1.122,0 -2.033,-0.885 -2.033,-1.984" id="path3069"/>
            </g>
          </g>
        </g>
      </g>
    </g>
  </g>
</svg>
